<svg width="141" height="51" viewBox="0 0 141 51" fill="none" xmlns="http://www.w3.org/2000/svg">
<path d="M23.103 19.6938L23.603 19.6938V19.6938H23.103ZM30.808 19.4516H30.308L31.308 19.4516L30.808 19.4516ZM30.808 15.0912L31.308 15.0912L31.308 14.0495L30.4953 14.7011L30.808 15.0912ZM13.2828 20.1784H13.7828L13.7828 20.1766L13.2828 20.1784ZM29.2972 15.8179V15.3179H28.7972V15.8179H29.2972ZM30.2037 15.8179H30.7037V15.3179H30.2037V15.8179ZM30.2037 16.5447V17.0447H30.7037V16.5447H30.2037ZM29.2972 16.5447H28.7972V17.0447H29.2972V16.5447ZM29.5994 16.5447V16.0447H29.0994V16.5447H29.5994ZM30.5059 16.5447H31.0059V16.0447H30.5059V16.5447ZM30.5059 17.2714V17.7714H31.0059V17.2714H30.5059ZM29.5994 17.2714H29.0994V17.7714H29.5994V17.2714ZM30.2037 18.7249V18.2249H29.7037V18.7249H30.2037ZM31.1102 18.7249H31.6102V18.2249H31.1102V18.7249ZM31.1102 19.4516V19.9516H31.6102V19.4516H31.1102ZM30.2037 19.4516H29.7037V19.9516H30.2037V19.4516ZM30.808 18.7248V19.2248H31.308V18.7248H30.808ZM29.9016 18.7248H29.4016V19.2248H29.9016V18.7248ZM29.9016 17.2715V16.7715H29.4016V17.2715H29.9016ZM30.808 17.2715H31.308V16.7715H30.808V17.2715ZM30.2079 14.849L30.618 14.5631L30.3812 14.2235L30.0034 14.3928L30.2079 14.849ZM30.6502 15.4834L30.8547 15.9397L31.4057 15.6927L31.0603 15.1974L30.6502 15.4834ZM29.4375 16.0269L29.0273 16.3128L29.2641 16.6525L29.6419 16.4831L29.4375 16.0269ZM28.9952 15.3925L28.7907 14.9363L28.2396 15.1832L28.585 15.6785L28.9952 15.3925ZM14.6425 16.0602H15.1425V15.5602H14.6425V16.0602ZM13.736 16.0602V15.5602H13.236V16.0602H13.736ZM13.736 16.7869H13.236V17.2869H13.736V16.7869ZM14.6425 16.7869V17.2869H15.1425V16.7869H14.6425ZM14.3404 16.7869H14.8404V16.2869H14.3404V16.7869ZM13.4339 16.7869V16.2869H12.9339V16.7869H13.4339ZM13.4339 17.5136H12.9339V18.0136H13.4339V17.5136ZM14.3404 17.5136V18.0136H14.8404V17.5136H14.3404ZM13.7361 18.9671H14.2361V18.4671H13.7361V18.9671ZM12.8296 18.9671V18.4671H12.3296V18.9671H12.8296ZM12.8296 19.6938H12.3296V20.1938H12.8296V19.6938ZM13.7361 19.6938V20.1938H14.2361V19.6938H13.7361ZM13.1318 18.9671H12.6318V19.4671H13.1318V18.9671ZM14.0382 18.9671V19.4671H14.5382V18.9671H14.0382ZM14.0382 17.5136H14.5382V17.0136H14.0382V17.5136ZM13.1318 17.5136V17.0136H12.6318V17.5136H13.1318ZM13.7318 15.0912L13.9363 14.6349L13.5585 14.4656L13.3217 14.8052L13.7318 15.0912ZM13.2895 15.7256L12.8794 15.4396L12.534 15.9349L13.0851 16.1818L13.2895 15.7256ZM14.5023 16.269L14.2978 16.7253L14.6756 16.8946L14.9124 16.555L14.5023 16.269ZM14.9446 15.6347L15.3547 15.9207L15.7001 15.4254L15.149 15.1784L14.9446 15.6347ZM12.9807 15.5759V15.0759H12.4807V15.5759H12.9807ZM14.1893 15.5759H14.6893V15.0759H14.1893V15.5759ZM14.1893 16.7871V17.2871H14.6893V16.7871H14.1893ZM12.9807 16.7871H12.4807V17.2871H12.9807V16.7871ZM12.3763 17.0291V16.5291H11.8763V17.0291H12.3763ZM13.8871 17.0291H14.3871V16.5291H13.8871V17.0291ZM13.8871 19.6938V20.1938H14.3871V19.6938H13.8871ZM12.3763 19.6938H11.8763V20.1938H12.3763V19.6938ZM12.6785 17.4257L12.2487 17.1701L11.9452 17.6807L12.5 17.8927L12.6785 17.4257ZM13.0583 16.7867L13.2368 16.3197L12.8436 16.1695L12.6286 16.5312L13.0583 16.7867ZM14.4915 17.3343L14.9212 17.5899L15.2248 17.0793L14.6699 16.8673L14.4915 17.3343ZM14.1116 17.9732L13.9332 18.4403L14.3263 18.5905L14.5414 18.2288L14.1116 17.9732ZM32.3188 19.9361H31.8188V19.9361L32.3188 19.9361ZM14.2936 19.6938V26.2343H15.2936V19.6938H14.2936ZM28.7972 19.6938V27.5666H29.7972V19.6938H28.7972ZM27.2864 21.2683V24.7808H28.2864V21.2683H27.2864ZM15.8044 20.905V28.4144H16.8044V20.905H15.8044ZM25.2648 27.6877V21.874H24.2648V27.6877H25.2648ZM17.3152 20.1784V27.2033H18.3152V20.1784H17.3152ZM19.826 19.6937C19.826 18.7793 20.1251 18.1391 20.531 17.7292C20.9414 17.315 21.4907 17.1052 22.0454 17.1052C22.6001 17.1052 23.1495 17.315 23.5598 17.7292C23.9658 18.1391 24.2648 18.7793 24.2648 19.6937H25.2648C25.2648 18.5492 24.8841 17.6451 24.2703 17.0255C23.6608 16.4102 22.8505 16.1052 22.0454 16.1052C21.2404 16.1052 20.43 16.4102 19.8206 17.0255C19.2068 17.6451 18.826 18.5492 18.826 19.6937H19.826ZM23.603 19.6938C23.603 19.0467 23.4547 18.5081 23.1841 18.1155C22.9113 17.7197 22.5047 17.4678 22.0454 17.4678C21.5861 17.4678 21.1796 17.7197 20.9067 18.1155C20.6361 18.5081 20.4879 19.0467 20.4879 19.6938H21.4879C21.4879 19.1902 21.604 18.8659 21.73 18.6831C21.8537 18.5036 21.9759 18.4678 22.0454 18.4678C22.1149 18.4678 22.2371 18.5036 22.3608 18.6831C22.4868 18.8659 22.603 19.1902 22.603 19.6938H23.603ZM22.603 28.1419C22.603 28.6455 22.4868 28.9698 22.3608 29.1526C22.2371 29.332 22.1149 29.3679 22.0454 29.3679C21.9759 29.3679 21.8537 29.332 21.73 29.1526C21.604 28.9698 21.4879 28.6455 21.4879 28.1419H20.4879C20.4879 28.789 20.6361 29.3276 20.9067 29.7201C21.1796 30.116 21.5861 30.3679 22.0454 30.3679C22.5047 30.3679 22.9113 30.116 23.1841 29.7201C23.4547 29.3276 23.603 28.789 23.603 28.1419H22.603ZM18.826 28.1721C18.826 29.3167 19.2068 30.2207 19.8206 30.8404C20.43 31.4557 21.2404 31.7607 22.0454 31.7607C22.8505 31.7607 23.6608 31.4557 24.2703 30.8404C24.8841 30.2207 25.2648 29.3167 25.2648 28.1721H24.2648C24.2648 29.0866 23.9658 29.7268 23.5598 30.1367C23.1495 30.5509 22.6001 30.7607 22.0454 30.7607C21.4907 30.7607 20.9414 30.5509 20.531 30.1367C20.1251 29.7268 19.826 29.0866 19.826 28.1721H18.826ZM19.826 28.1721V19.6937H18.826V28.1721H19.826ZM18.3152 19.6938C18.3152 18.3709 18.7921 17.4179 19.4749 16.7922C20.1658 16.1592 21.0986 15.8335 22.0454 15.8335C22.9923 15.8335 23.925 16.1592 24.6159 16.7923C25.2988 17.4179 25.7756 18.3709 25.7756 19.6938H26.7756C26.7756 18.1099 26.1949 16.8827 25.2915 16.0549C24.396 15.2345 23.2137 14.8335 22.0454 14.8335C20.8772 14.8335 19.6948 15.2345 18.7994 16.0549C17.8959 16.8827 17.3152 18.1099 17.3152 19.6938H18.3152ZM16.8044 19.6938C16.8044 17.9555 17.4636 16.6868 18.4271 15.8466C19.4005 14.9977 20.7142 14.5617 22.0454 14.5617C23.3767 14.5617 24.6903 14.9977 25.6638 15.8466C26.6273 16.6868 27.2864 17.9555 27.2864 19.6938H28.2864C28.2864 17.6773 27.5103 16.13 26.321 15.0929C25.1415 14.0644 23.5847 13.5617 22.0454 13.5617C20.5062 13.5617 18.9493 14.0644 17.7699 15.0929C16.5805 16.13 15.8044 17.6773 15.8044 19.6938H16.8044ZM15.2936 19.6938C15.2936 17.5371 16.1373 15.9516 17.3828 14.8976C18.6393 13.8344 20.3326 13.29 22.0454 13.29C23.7583 13.29 25.4516 13.8344 26.7081 14.8976C27.9536 15.9516 28.7972 17.5371 28.7972 19.6938H29.7972C29.7972 17.248 28.828 15.3816 27.354 14.1343C25.8911 12.8963 23.9585 12.29 22.0454 12.29C20.1324 12.29 18.1998 12.8963 16.7368 14.1343C15.2629 15.3816 14.2936 17.248 14.2936 19.6938H15.2936ZM13.7828 19.4516C13.7828 16.972 14.8069 15.1386 16.3339 13.9144C17.8735 12.6801 19.9482 12.0485 22.0454 12.0485C24.1426 12.0485 26.2173 12.6801 27.7569 13.9144C29.2839 15.1386 30.308 16.972 30.308 19.4516H31.308C31.308 16.6625 30.1414 14.5443 28.3824 13.1342C26.6361 11.7342 24.3295 11.0485 22.0454 11.0485C19.7613 11.0485 17.4547 11.7342 15.7084 13.1342C13.9494 14.5443 12.7828 16.6625 12.7828 19.4516H13.7828ZM31.308 19.4516L31.308 15.0912L30.308 15.0912L30.308 19.4516L31.308 19.4516ZM30.4953 14.7011L29.2866 15.6701L29.9121 16.4503L31.1208 15.4813L30.4953 14.7011ZM12.7828 20.1784V28.1722H13.7828V20.1784H12.7828ZM14.2936 28.1721C14.2936 30.6179 15.2629 32.4844 16.7368 33.7316C18.1998 34.9697 20.1324 35.5759 22.0454 35.5759C23.9585 35.5759 25.8911 34.9697 27.354 33.7316C28.8279 32.4844 29.7972 30.6179 29.7972 28.1721H28.7972C28.7972 30.3289 27.9535 31.9143 26.708 32.9683C25.4516 34.0316 23.7583 34.5759 22.0454 34.5759C20.3326 34.5759 18.6393 34.0316 17.3828 32.9683C16.1373 31.9143 15.2936 30.3289 15.2936 28.1721H14.2936ZM13.9813 32.7646C15.0879 34.8759 17.339 36.2142 19.8481 36.6876C22.363 37.1622 25.2071 36.7848 27.5866 35.3859L27.0798 34.5238C24.927 35.7895 22.3322 36.1388 20.0335 35.705C17.729 35.2701 15.7918 34.0649 14.867 32.3003L13.9813 32.7646ZM15.8044 28.1721C15.8044 30.1885 16.5805 31.7359 17.7699 32.773C18.9493 33.8015 20.5062 34.3042 22.0454 34.3042C23.5847 34.3042 25.1415 33.8015 26.321 32.773C27.5103 31.7359 28.2864 30.1885 28.2864 28.1721H27.2864C27.2864 29.9104 26.6273 31.1791 25.6638 32.0193C24.6903 32.8682 23.3767 33.3042 22.0454 33.3042C20.7142 33.3042 19.4005 32.8682 18.4271 32.0193C17.4636 31.1791 16.8044 29.9104 16.8044 28.1721H15.8044ZM17.3152 28.1721C17.3152 29.756 17.8959 30.9832 18.7994 31.811C19.6948 32.6314 20.8772 33.0324 22.0454 33.0324C23.2137 33.0324 24.396 32.6314 25.2915 31.811C26.1949 30.9832 26.7756 29.7561 26.7756 28.1722H25.7756C25.7756 29.4951 25.2988 30.4481 24.6159 31.0737C23.925 31.7067 22.9923 32.0324 22.0454 32.0324C21.0986 32.0324 20.1658 31.7067 19.4749 31.0737C18.7921 30.448 18.3152 29.4951 18.3152 28.1721H17.3152ZM29.6659 16.7435L31.0256 17.4702L31.497 16.5882L30.1373 15.8615L29.6659 16.7435ZM29.2972 16.3179H30.2037V15.3179H29.2972V16.3179ZM29.7037 15.8179V16.5447H30.7037V15.8179H29.7037ZM30.2037 16.0447H29.2972V17.0447H30.2037V16.0447ZM29.7972 16.5447V15.8179H28.7972V16.5447H29.7972ZM29.5994 17.0447H30.5059V16.0447H29.5994V17.0447ZM30.0059 16.5447V17.2714H31.0059V16.5447H30.0059ZM30.5059 16.7714H29.5994V17.7714H30.5059V16.7714ZM30.0994 17.2714V16.5447H29.0994V17.2714H30.0994ZM30.2037 19.2249H31.1102V18.2249H30.2037V19.2249ZM30.6102 18.7249V19.4516H31.6102V18.7249H30.6102ZM31.1102 18.9516H30.2037V19.9516H31.1102V18.9516ZM30.7037 19.4516V18.7249H29.7037V19.4516H30.7037ZM29.9016 18.4981H30.808V17.4981H29.9016V18.4981ZM30.308 17.9981V18.7248H31.308V17.9981H30.308ZM30.808 18.2248H29.9016V19.2248H30.808V18.2248ZM30.4016 18.7248V17.9981H29.4016V18.7248H30.4016ZM29.9016 17.7715H30.808V16.7715H29.9016V17.7715ZM30.308 17.2715V17.9981H31.308V17.2715H30.308ZM30.4016 17.9981V17.2715H29.4016V17.9981H30.4016ZM29.7977 15.135L30.24 15.7694L31.0603 15.1974L30.618 14.5631L29.7977 15.135ZM30.4457 15.0271L29.233 15.5706L29.6419 16.4831L30.8547 15.9397L30.4457 15.0271ZM29.8476 15.7409L29.4053 15.1065L28.585 15.6785L29.0273 16.3128L29.8476 15.7409ZM29.1996 15.8488L30.4124 15.3053L30.0034 14.3928L28.7907 14.9363L29.1996 15.8488ZM13.8025 16.1037L12.4428 16.8304L12.9142 17.7124L14.2739 16.9856L13.8025 16.1037ZM14.6425 15.5602H13.736V16.5602H14.6425V15.5602ZM13.236 16.0602V16.7869H14.236V16.0602H13.236ZM13.736 17.2869H14.6425V16.2869H13.736V17.2869ZM15.1425 16.7869V16.0602H14.1425V16.7869H15.1425ZM14.3404 16.2869H13.4339V17.2869H14.3404V16.2869ZM12.9339 16.7869V17.5136H13.9339V16.7869H12.9339ZM13.4339 18.0136H14.3404V17.0136H13.4339V18.0136ZM14.8404 17.5136V16.7869H13.8404V17.5136H14.8404ZM13.7361 18.4671H12.8296V19.4671H13.7361V18.4671ZM12.3296 18.9671V19.6938H13.3296V18.9671H12.3296ZM12.8296 20.1938H13.7361V19.1938H12.8296V20.1938ZM14.2361 19.6938V18.9671H13.2361V19.6938H14.2361ZM14.0382 17.7404H13.1318V18.7404H14.0382V17.7404ZM12.6318 18.2404V18.9671H13.6318V18.2404H12.6318ZM13.1318 19.4671H14.0382V18.4671H13.1318V19.4671ZM14.5382 18.9671V18.2404H13.5382V18.9671H14.5382ZM14.0382 17.0136H13.1318V18.0136H14.0382V17.0136ZM12.6318 17.5136V18.2404H13.6318V17.5136H12.6318ZM14.5382 18.2404V17.5136H13.5382V18.2404H14.5382ZM13.3217 14.8052L12.8794 15.4396L13.6997 16.0115L14.142 15.3772L13.3217 14.8052ZM13.0851 16.1818L14.2978 16.7253L14.7067 15.8128L13.494 15.2693L13.0851 16.1818ZM14.9124 16.555L15.3547 15.9207L14.5344 15.3487L14.0921 15.9831L14.9124 16.555ZM15.149 15.1784L13.9363 14.6349L13.5274 15.5475L14.7401 16.091L15.149 15.1784ZM12.9807 16.0759H14.1893V15.0759H12.9807V16.0759ZM13.6893 15.5759V16.7871H14.6893V15.5759H13.6893ZM14.1893 16.2871H12.9807V17.2871H14.1893V16.2871ZM13.4807 16.7871V15.5759H12.4807V16.7871H13.4807ZM12.3763 17.5291H13.8871V16.5291H12.3763V17.5291ZM13.3871 17.0291V19.6938H14.3871V17.0291H13.3871ZM13.8871 19.1938H12.3763V20.1938H13.8871V19.1938ZM12.8763 19.6938V17.0291H11.8763V19.6938H12.8763ZM13.7828 20.1766C13.7803 19.4827 13.7818 18.9214 13.8472 18.5026C13.9174 18.0522 14.0304 17.9792 14.0571 17.9678L13.6629 17.0488C13.1124 17.2849 12.9344 17.8662 12.8591 18.3485C12.7789 18.8625 12.7804 19.5124 12.7828 20.1801L13.7828 20.1766ZM13.1083 17.6812L13.4881 17.0423L12.6286 16.5312L12.2487 17.1701L13.1083 17.6812ZM12.8799 17.2538L14.313 17.8014L14.6699 16.8673L13.2368 16.3197L12.8799 17.2538ZM14.0617 17.0788L13.6818 17.7177L14.5414 18.2288L14.9212 17.5899L14.0617 17.0788ZM14.2901 17.5062L12.857 16.9586L12.5 17.8927L13.9332 18.4403L14.2901 17.5062ZM12.272 19.9361C12.272 16.8738 13.4911 14.6077 15.3025 13.0985C17.1255 11.5797 19.5752 10.8071 22.0454 10.8071C24.5156 10.8071 26.9654 11.5797 28.7883 13.0985C30.5998 14.6077 31.8188 16.8738 31.8188 19.9361H32.8188C32.8188 16.579 31.4695 14.0306 29.4284 12.3302C27.3988 10.6393 24.7119 9.80707 22.0454 9.80707C19.3789 9.80707 16.692 10.6393 14.6624 12.3302C12.6214 14.0306 11.272 16.579 11.272 19.9361H12.272ZM11.272 27.9905C11.272 31.3475 12.6214 33.8959 14.6624 35.5964C16.692 37.2873 19.3789 38.1195 22.0454 38.1195C24.7119 38.1195 27.3988 37.2873 29.4284 35.5964C31.4695 33.8959 32.8188 31.3475 32.8188 27.9905H31.8188C31.8188 31.0527 30.5998 33.3189 28.7883 34.8281C26.9654 36.3468 24.5156 37.1195 22.0454 37.1195C19.5752 37.1195 17.1255 36.3468 15.3025 34.8281C13.4911 33.3189 12.272 31.0527 12.272 27.9905H11.272ZM31.8188 19.9361L31.8188 28.051L32.8188 28.051L32.8188 19.936L31.8188 19.9361ZM11.272 19.9361V28.051H12.272V19.9361H11.272ZM20.4879 19.6938V27.2032H21.4879V19.6938H20.4879ZM21.4879 28.1419V20.6325H20.4879V28.1419H21.4879ZM22.603 19.6938L22.603 25.6287L23.603 25.6287L23.603 19.6938L22.603 19.6938ZM25.7756 19.6938V28.1722H26.7756V19.6938H25.7756ZM30.308 18.9671V28.1722H31.308V18.9671H30.308Z" fill="#85B4D7"/>
<path d="M22.0366 50C5.03661 37.5 0.536606 29.5 1.03661 11C10.0366 9 15.0366 6.5 22.0366 1C29.0366 6.5 34.0366 9 43.0366 11C43.5366 29.5 39.0366 37.5 22.0366 50Z" stroke="#3C57B7"/>
<path d="M54.667 32V17.4545H59.9937C61.0259 17.4545 61.8806 17.625 62.5577 17.9659C63.2348 18.3021 63.7414 18.759 64.0776 19.3366C64.4137 19.9096 64.5818 20.5559 64.5818 21.2756C64.5818 21.8816 64.4705 22.393 64.248 22.8097C64.0255 23.2216 63.7272 23.553 63.3531 23.804C62.9838 24.0502 62.5766 24.2301 62.1315 24.3438V24.4858C62.6145 24.5095 63.0856 24.6657 63.5449 24.9545C64.0089 25.2386 64.3924 25.6435 64.6955 26.169C64.9985 26.6946 65.15 27.3338 65.15 28.0866C65.15 28.83 64.9748 29.4976 64.6244 30.0895C64.2788 30.6766 63.7437 31.143 63.0193 31.4886C62.2949 31.8295 61.3692 32 60.2423 32H54.667ZM56.8616 30.1179H60.0293C61.0804 30.1179 61.8332 29.9143 62.2878 29.5071C62.7423 29.0999 62.9696 28.5909 62.9696 27.9801C62.9696 27.5208 62.8536 27.0994 62.6216 26.7159C62.3896 26.3324 62.0581 26.027 61.6273 25.7997C61.2011 25.5724 60.6945 25.4588 60.1074 25.4588H56.8616V30.1179ZM56.8616 23.7472H59.802C60.2944 23.7472 60.7371 23.6525 61.1301 23.4631C61.5278 23.2737 61.8427 23.0085 62.0747 22.6676C62.3115 22.322 62.4298 21.9148 62.4298 21.446C62.4298 20.8447 62.2191 20.3404 61.7977 19.9332C61.3763 19.526 60.73 19.3224 59.8588 19.3224H56.8616V23.7472ZM71.6663 32.2131C70.7857 32.2131 69.9997 31.9882 69.3084 31.5384C68.6218 31.0838 68.0821 30.4375 67.6891 29.5994C67.3008 28.7566 67.1067 27.7457 67.1067 26.5668C67.1067 25.3878 67.3032 24.3793 67.6962 23.5412C68.0939 22.7031 68.6384 22.0616 69.3297 21.6165C70.021 21.1714 70.8046 20.9489 71.6805 20.9489C72.3576 20.9489 72.9021 21.0625 73.3141 21.2898C73.7307 21.5123 74.0527 21.7727 74.28 22.071C74.512 22.3693 74.6919 22.6321 74.8197 22.8594H74.9476V21.0909H77.0712V32H74.9973V30.3026H74.8197C74.6919 30.5346 74.5072 30.7997 74.2658 31.098C74.029 31.3963 73.7023 31.6567 73.2857 31.8793C72.869 32.1018 72.3292 32.2131 71.6663 32.2131ZM72.1351 30.402C72.7459 30.402 73.262 30.241 73.6834 29.919C74.1095 29.5923 74.4315 29.1402 74.6493 28.5625C74.8718 27.9848 74.9831 27.3125 74.9831 26.5455C74.9831 25.7879 74.8742 25.125 74.6564 24.5568C74.4386 23.9886 74.119 23.5459 73.6976 23.2287C73.2762 22.9115 72.7553 22.7528 72.1351 22.7528C71.4959 22.7528 70.9632 22.9186 70.5371 23.25C70.1109 23.5814 69.789 24.0336 69.5712 24.6065C69.3581 25.1795 69.2516 25.8258 69.2516 26.5455C69.2516 27.2746 69.3605 27.9304 69.5783 28.5128C69.7961 29.0952 70.118 29.5568 70.5442 29.8977C70.975 30.2339 71.5053 30.402 72.1351 30.402ZM84.6972 32.2202C83.6414 32.2202 82.7323 31.9811 81.97 31.5028C81.2124 31.0199 80.63 30.3546 80.2228 29.5071C79.8156 28.6596 79.612 27.6889 79.612 26.5952C79.612 25.4872 79.8203 24.5095 80.237 23.6619C80.6537 22.8097 81.2408 22.1444 81.9984 21.6662C82.7559 21.188 83.6485 20.9489 84.6759 20.9489C85.5045 20.9489 86.2432 21.1027 86.8918 21.4105C87.5405 21.7135 88.0637 22.1397 88.4614 22.6889C88.8639 23.2382 89.103 23.8797 89.1788 24.6136H87.112C86.9984 24.1023 86.7379 23.6619 86.3307 23.2926C85.9283 22.9233 85.3885 22.7386 84.7114 22.7386C84.1196 22.7386 83.6011 22.8949 83.156 23.2074C82.7157 23.5152 82.3724 23.9555 82.1262 24.5284C81.88 25.0966 81.7569 25.7689 81.7569 26.5455C81.7569 27.3409 81.8776 28.0275 82.1191 28.6051C82.3606 29.1828 82.7015 29.6302 83.1418 29.9474C83.5869 30.2647 84.1101 30.4233 84.7114 30.4233C85.1139 30.4233 85.4785 30.3499 85.8052 30.2031C86.1366 30.0516 86.4136 29.8362 86.6361 29.5568C86.8634 29.2775 87.022 28.9413 87.112 28.5483H89.1788C89.103 29.2538 88.8734 29.8835 88.4898 30.4375C88.1063 30.9915 87.5926 31.4271 86.9486 31.7443C86.3094 32.0616 85.559 32.2202 84.6972 32.2202ZM93.4028 28.2997L93.3886 25.7074H93.758L98.1045 21.0909H100.647L95.6898 26.3466H95.356L93.4028 28.2997ZM91.4497 32V17.4545H93.5733V32H91.4497ZM98.3389 32L94.4327 26.8153L95.8957 25.331L100.945 32H98.3389ZM103.982 32H101.652L106.887 17.4545H109.422L114.656 32H112.327L108.215 20.0966H108.101L103.982 32ZM104.372 26.304H111.929V28.1506H104.372V26.304ZM116.586 36.0909V21.0909H118.66V22.8594H118.838C118.961 22.6321 119.139 22.3693 119.371 22.071C119.603 21.7727 119.924 21.5123 120.336 21.2898C120.748 21.0625 121.293 20.9489 121.97 20.9489C122.851 20.9489 123.637 21.1714 124.328 21.6165C125.019 22.0616 125.561 22.7031 125.954 23.5412C126.352 24.3793 126.551 25.3878 126.551 26.5668C126.551 27.7457 126.354 28.7566 125.961 29.5994C125.568 30.4375 125.029 31.0838 124.342 31.5384C123.656 31.9882 122.872 32.2131 121.991 32.2131C121.328 32.2131 120.786 32.1018 120.365 31.8793C119.948 31.6567 119.621 31.3963 119.385 31.098C119.148 30.7997 118.966 30.5346 118.838 30.3026H118.71V36.0909H116.586ZM118.667 26.5455C118.667 27.3125 118.779 27.9848 119.001 28.5625C119.224 29.1402 119.546 29.5923 119.967 29.919C120.389 30.241 120.905 30.402 121.515 30.402C122.15 30.402 122.68 30.2339 123.106 29.8977C123.532 29.5568 123.854 29.0952 124.072 28.5128C124.295 27.9304 124.406 27.2746 124.406 26.5455C124.406 25.8258 124.297 25.1795 124.079 24.6065C123.866 24.0336 123.544 23.5814 123.113 23.25C122.687 22.9186 122.155 22.7528 121.515 22.7528C120.9 22.7528 120.379 22.9115 119.953 23.2287C119.532 23.5459 119.212 23.9886 118.994 24.5568C118.776 25.125 118.667 25.7879 118.667 26.5455ZM128.93 36.0909V21.0909H131.004V22.8594H131.182C131.305 22.6321 131.482 22.3693 131.714 22.071C131.946 21.7727 132.268 21.5123 132.68 21.2898C133.092 21.0625 133.637 20.9489 134.314 20.9489C135.194 20.9489 135.98 21.1714 136.672 21.6165C137.363 22.0616 137.905 22.7031 138.298 23.5412C138.696 24.3793 138.895 25.3878 138.895 26.5668C138.895 27.7457 138.698 28.7566 138.305 29.5994C137.912 30.4375 137.372 31.0838 136.686 31.5384C135.999 31.9882 135.216 32.2131 134.335 32.2131C133.672 32.2131 133.13 32.1018 132.709 31.8793C132.292 31.6567 131.965 31.3963 131.728 31.098C131.492 30.7997 131.309 30.5346 131.182 30.3026H131.054V36.0909H128.93ZM131.011 26.5455C131.011 27.3125 131.122 27.9848 131.345 28.5625C131.567 29.1402 131.889 29.5923 132.311 29.919C132.732 30.241 133.248 30.402 133.859 30.402C134.494 30.402 135.024 30.2339 135.45 29.8977C135.876 29.5568 136.198 29.0952 136.416 28.5128C136.639 27.9304 136.75 27.2746 136.75 26.5455C136.75 25.8258 136.641 25.1795 136.423 24.6065C136.21 24.0336 135.888 23.5814 135.457 23.25C135.031 22.9186 134.498 22.7528 133.859 22.7528C133.244 22.7528 132.723 22.9115 132.297 23.2287C131.875 23.5459 131.556 23.9886 131.338 24.5568C131.12 25.125 131.011 25.7879 131.011 26.5455Z" fill="white"/>
</svg>
