<svg width="60" height="60" viewBox="0 0 60 60" fill="none" xmlns="http://www.w3.org/2000/svg">
<path d="M31.7367 30.4C32.6669 30.4 33.4209 29.6836 33.4209 28.8C33.4209 27.9163 32.6669 27.2 31.7367 27.2C30.8065 27.2 30.0525 27.9163 30.0525 28.8C30.0525 29.6836 30.8065 30.4 31.7367 30.4Z" stroke="#6379C5" stroke-width="4" stroke-linecap="round" stroke-linejoin="round"/>
<path d="M30.0525 38.4001C35.1684 38.4001 39.3157 34.6393 39.3157 30.0001C39.3157 25.3609 35.1684 21.6001 30.0525 21.6001C24.9366 21.6001 20.7894 25.3609 20.7894 30.0001C20.7894 34.6393 24.9366 38.4001 30.0525 38.4001Z" stroke="#6379C5" stroke-width="4" stroke-linecap="round" stroke-linejoin="round"/>
<path d="M9 30C9 30 16.5188 16 30.0526 16C43.5865 16 51.1053 30 51.1053 30C51.1053 30 43.5865 44 30.0526 44C16.5188 44 9 30 9 30Z" stroke="#6379C5" stroke-width="4" stroke-linecap="round" stroke-linejoin="round"/>
</svg>
