<svg width="60" height="60" viewBox="0 0 60 60" fill="none" xmlns="http://www.w3.org/2000/svg">
<path d="M45.8421 12.6088C46.54 12.6088 47.2094 12.8836 47.7029 13.3728C48.1964 13.8621 48.4737 14.5256 48.4737 15.2175V36.0875C48.4737 36.7794 48.1964 37.443 47.7029 37.9322C47.2094 38.4214 46.54 38.6963 45.8421 38.6963H39.2632C38.4461 38.6963 37.6402 38.8849 36.9094 39.2471C36.1786 39.6093 35.5429 40.1353 35.0526 40.7833L30.0526 47.3912L25.0526 40.7833C24.5624 40.1353 23.9267 39.6093 23.1959 39.2471C22.465 38.8849 21.6592 38.6963 20.8421 38.6963H14.2632C13.5652 38.6963 12.8959 38.4214 12.4024 37.9322C11.9088 37.443 11.6316 36.7794 11.6316 36.0875V15.2175C11.6316 14.5256 11.9088 13.8621 12.4024 13.3728C12.8959 12.8836 13.5652 12.6088 14.2632 12.6088H45.8421ZM14.2632 10C12.8673 10 11.5286 10.5497 10.5415 11.5282C9.55451 12.5066 9 13.8337 9 15.2175L9 36.0875C9 37.4713 9.55451 38.7984 10.5415 39.7769C11.5286 40.7553 12.8673 41.305 14.2632 41.305H20.8421C21.2506 41.305 21.6536 41.3993 22.019 41.5804C22.3844 41.7616 22.7022 42.0245 22.9474 42.3485L27.9474 48.9565C28.1925 49.2805 28.5103 49.5435 28.8758 49.7246C29.2412 49.9057 29.6441 50 30.0526 50C30.4612 50 30.8641 49.9057 31.2295 49.7246C31.5949 49.5435 31.9128 49.2805 32.1579 48.9565L37.1579 42.3485C37.403 42.0245 37.7209 41.7616 38.0863 41.5804C38.4517 41.3993 38.8546 41.305 39.2632 41.305H45.8421C47.238 41.305 48.5767 40.7553 49.5637 39.7769C50.5508 38.7984 51.1053 37.4713 51.1053 36.0875V15.2175C51.1053 13.8337 50.5508 12.5066 49.5637 11.5282C48.5767 10.5497 47.238 10 45.8421 10H14.2632Z" fill="#6379C5"/>
<path d="M16.8947 19.1308C16.8947 18.7849 17.0333 18.4531 17.2801 18.2085C17.5269 17.9638 17.8615 17.8264 18.2105 17.8264H41.8947C42.2437 17.8264 42.5784 17.9638 42.8251 18.2085C43.0719 18.4531 43.2105 18.7849 43.2105 19.1308C43.2105 19.4767 43.0719 19.8085 42.8251 20.0531C42.5784 20.2977 42.2437 20.4352 41.8947 20.4352H18.2105C17.8615 20.4352 17.5269 20.2977 17.2801 20.0531C17.0333 19.8085 16.8947 19.4767 16.8947 19.1308ZM16.8947 25.6527C16.8947 25.3067 17.0333 24.975 17.2801 24.7303C17.5269 24.4857 17.8615 24.3483 18.2105 24.3483H41.8947C42.2437 24.3483 42.5784 24.4857 42.8251 24.7303C43.0719 24.975 43.2105 25.3067 43.2105 25.6527C43.2105 25.9986 43.0719 26.3304 42.8251 26.575C42.5784 26.8196 42.2437 26.957 41.8947 26.957H18.2105C17.8615 26.957 17.5269 26.8196 17.2801 26.575C17.0333 26.3304 16.8947 25.9986 16.8947 25.6527ZM16.8947 32.1746C16.8947 31.8286 17.0333 31.4968 17.2801 31.2522C17.5269 31.0076 17.8615 30.8702 18.2105 30.8702H31.3684C31.7174 30.8702 32.052 31.0076 32.2988 31.2522C32.5456 31.4968 32.6842 31.8286 32.6842 32.1746C32.6842 32.5205 32.5456 32.8523 32.2988 33.0969C32.052 33.3415 31.7174 33.4789 31.3684 33.4789H18.2105C17.8615 33.4789 17.5269 33.3415 17.2801 33.0969C17.0333 32.8523 16.8947 32.5205 16.8947 32.1746Z" fill="#6379C5"/>
</svg>
