<svg width="60" height="60" viewBox="0 0 60 60" fill="none" xmlns="http://www.w3.org/2000/svg">
<path fill-rule="evenodd" clip-rule="evenodd" d="M5 20.4353C5 19.3726 5.39035 18.3535 6.08517 17.602C6.78 16.8506 7.72239 16.4285 8.70502 16.4285H33.4051C34.3878 16.4285 35.3301 16.8506 36.025 17.602C36.7198 18.3535 37.1101 19.3726 37.1101 20.4353V23.1065H44.1719C45.1034 23.1066 46.0008 23.4862 46.6851 24.1697L53.2084 30.6808C53.5843 31.0561 53.8843 31.5115 54.0894 32.0184C54.2945 32.5252 54.4003 33.0725 54.4002 33.6258V44.4763H46.9902V41.8051H51.9302V33.6258C51.9302 33.4414 51.8949 33.2589 51.8264 33.0899C51.758 32.921 51.6579 32.7692 51.5325 32.6441L45.0092 26.1317C44.7812 25.9041 44.4822 25.7778 44.1719 25.7778H37.1101V41.8051H39.5802V44.4763H18.5851V41.8051H34.6401V20.4353C34.6401 20.0811 34.51 19.7414 34.2784 19.4909C34.0468 19.2404 33.7327 19.0997 33.4051 19.0997H8.70502C8.37747 19.0997 8.06334 19.2404 7.83174 19.4909C7.60013 19.7414 7.47001 20.0811 7.47001 20.4353V41.8051H11.175V44.4763H5V20.4353Z" fill="#6379C5"/>
<path fill-rule="evenodd" clip-rule="evenodd" d="M14.9081 46.2857C15.567 46.2857 16.1988 45.9997 16.6647 45.4907C17.1305 44.9816 17.3923 44.2912 17.3923 43.5714C17.3923 42.8515 17.1305 42.1611 16.6647 41.6521C16.1988 41.143 15.567 40.8571 14.9081 40.8571C14.2493 40.8571 13.6175 41.143 13.1516 41.6521C12.6857 42.1611 12.424 42.8515 12.424 43.5714C12.424 44.2912 12.6857 44.9816 13.1516 45.4907C13.6175 45.9997 14.2493 46.2857 14.9081 46.2857ZM14.9081 49C16.2258 49 17.4895 48.428 18.4212 47.41C19.3529 46.3919 19.8764 45.0111 19.8764 43.5714C19.8764 42.1316 19.3529 40.7508 18.4212 39.7328C17.4895 38.7147 16.2258 38.1427 14.9081 38.1427C13.5905 38.1427 12.3268 38.7147 11.395 39.7328C10.4633 40.7508 9.93988 42.1316 9.93988 43.5714C9.93988 45.0111 10.4633 46.3919 11.395 47.41C12.3268 48.428 13.5905 49 14.9081 49ZM43.4756 46.2857C44.1344 46.2857 44.7663 45.9997 45.2321 45.4907C45.698 44.9816 45.9597 44.2912 45.9597 43.5714C45.9597 42.8515 45.698 42.1611 45.2321 41.6521C44.7663 41.143 44.1344 40.8571 43.4756 40.8571C42.8167 40.8571 42.1849 41.143 41.719 41.6521C41.2532 42.1611 40.9915 42.8515 40.9915 43.5714C40.9915 44.2912 41.2532 44.9816 41.719 45.4907C42.1849 45.9997 42.8167 46.2857 43.4756 46.2857ZM43.4756 49C44.7932 49 46.0569 48.428 46.9887 47.41C47.9204 46.3919 48.4438 45.0111 48.4438 43.5714C48.4438 42.1316 47.9204 40.7508 46.9887 39.7328C46.0569 38.7147 44.7932 38.1427 43.4756 38.1427C42.1579 38.1427 40.8942 38.7147 39.9625 39.7328C39.0308 40.7508 38.5073 42.1316 38.5073 43.5714C38.5073 45.0111 39.0308 46.3919 39.9625 47.41C40.8942 48.428 42.1579 49 43.4756 49ZM53.4121 35.4284H36.0232V32.7141H53.4121V35.4284ZM19.8764 34.0713V23.214H22.3605V34.0713H19.8764ZM40.9915 19.1426C41.3209 19.1426 41.6368 19.2856 41.8697 19.5401C42.1027 19.7946 42.2335 20.1398 42.2335 20.4997V24.5712H39.7494V20.4997C39.7494 20.1398 39.8802 19.7946 40.1132 19.5401C40.3461 19.2856 40.662 19.1426 40.9915 19.1426Z" fill="#6379C5"/>
<path fill-rule="evenodd" clip-rule="evenodd" d="M25.8213 30.0002H15.868V27.2859H25.8213V30.0002ZM43.2394 24.5715H38.2628V21.8572H43.2394V24.5715ZM40.7511 15.75C40.4211 15.75 40.1047 15.6071 39.8714 15.3525C39.638 15.098 39.507 14.7528 39.507 14.3929V12.3572C39.507 11.9972 39.638 11.652 39.8714 11.3975C40.1047 11.143 40.4211 11 40.7511 11C41.0811 11 41.3975 11.143 41.6309 11.3975C41.8642 11.652 41.9953 11.9972 41.9953 12.3572V14.3929C41.9953 14.7528 41.8642 15.098 41.6309 15.3525C41.3975 15.6071 41.0811 15.75 40.7511 15.75ZM45.1057 20.5001C45.1057 20.1401 45.2367 19.7949 45.4701 19.5404C45.7034 19.2859 46.0198 19.1429 46.3498 19.1429H48.216C48.546 19.1429 48.8625 19.2859 49.0958 19.5404C49.3291 19.7949 49.4602 20.1401 49.4602 20.5001C49.4602 20.86 49.3291 21.2052 49.0958 21.4597C48.8625 21.7143 48.546 21.8572 48.216 21.8572H46.3498C46.0198 21.8572 45.7034 21.7143 45.4701 21.4597C45.2367 21.2052 45.1057 20.86 45.1057 20.5001ZM44.1837 16.6607C43.9624 16.3939 43.8473 16.0422 43.8636 15.6829C43.88 15.3235 44.0264 14.986 44.2708 14.7444L45.408 13.6207C45.529 13.5004 45.6705 13.4074 45.8245 13.347C45.9785 13.2865 46.1419 13.2598 46.3054 13.2683C46.4688 13.2769 46.6291 13.3205 46.7771 13.3968C46.9251 13.473 47.0579 13.5803 47.1678 13.7126C47.2776 13.8449 47.3625 13.9995 47.4176 14.1677C47.4726 14.3358 47.4967 14.5141 47.4884 14.6924C47.4801 14.8707 47.4397 15.0455 47.3694 15.2067C47.2992 15.3679 47.2004 15.5124 47.0789 15.632L45.9417 16.7557C45.8206 16.8754 45.679 16.968 45.5251 17.028C45.3712 17.088 45.2079 17.1144 45.0447 17.1056C44.8814 17.0967 44.7214 17.0529 44.5736 16.9766C44.4259 16.9002 44.2934 16.7929 44.1837 16.6607Z" fill="#6379C5"/>
</svg>
