<svg width="222" height="222" viewBox="0 0 222 222" fill="none" xmlns="http://www.w3.org/2000/svg">
<path d="M89.1577 67.3161C89.5158 67.3161 95.2448 66.2419 97.3932 65.5258C99.1835 65.1678 100.616 63.3774 100.258 61.5871C99.8997 59.7968 98.1093 58.3645 96.319 58.7226C93.8126 59.0807 90.9481 59.7968 88.4416 60.5129C86.6513 60.871 85.219 63.0194 85.9352 64.8097C86.2932 66.242 87.7255 67.3161 89.1577 67.3161Z" fill="black"/>
<path d="M220.926 108.135C218.419 106.345 161.845 57.2903 111 57.2903C108.852 57.2903 107.419 58.7225 107.419 60.8709C107.419 63.0193 108.852 64.4516 111 64.4516C152.535 64.4516 200.158 100.616 212.69 111C200.158 121.384 152.535 157.548 111 157.548C69.4645 157.548 21.8419 121.384 9.30968 111C18.6194 103.481 46.1903 82.3548 76.6258 71.2548C78.4161 70.5387 79.4903 68.3903 78.7742 66.6C78.0581 64.8096 75.9097 63.7354 74.1194 64.4516C35.8065 78.4161 2.50645 107.061 1.07419 108.135C0.358064 108.852 0 109.926 0 111C0 112.074 0.358064 113.148 1.07419 113.864C3.58064 115.655 60.1548 164.71 111 164.71C161.845 164.71 218.419 115.655 220.926 113.864C221.642 113.148 222 112.074 222 111C222 109.926 221.642 108.852 220.926 108.135Z" fill="black"/>
<path d="M111 150.387C113.148 150.387 114.581 148.955 114.581 146.806C114.581 144.658 113.148 143.226 111 143.226C93.0969 143.226 78.7743 128.903 78.7743 111C78.7743 93.0968 93.0969 78.7742 111 78.7742C128.903 78.7742 143.226 93.0968 143.226 111C143.226 123.174 136.423 134.274 125.323 140.003C123.532 140.719 122.816 142.868 123.532 144.658C124.248 146.448 126.397 147.165 128.187 146.448C142.152 139.645 150.387 126.039 150.387 111C150.387 89.1581 132.842 71.6129 111 71.6129C89.1582 71.6129 71.613 89.1581 71.613 111C71.613 132.842 89.1582 150.387 111 150.387ZM111 21.4839C113.148 21.4839 114.581 20.0516 114.581 17.9032V3.58065C114.581 1.43226 113.148 0 111 0C108.852 0 107.419 1.43226 107.419 3.58065V17.9032C107.419 20.0516 108.852 21.4839 111 21.4839ZM43.3259 40.8194C44.042 42.2516 46.1904 43.6839 47.9807 42.2516C49.7711 41.1774 50.4872 39.3871 49.413 37.5968L42.2517 23.2742C41.5356 21.4839 39.3872 20.7677 37.5969 21.8419C35.8066 22.5581 35.0904 24.7064 36.1646 26.4968L43.3259 40.8194ZM174.019 42.6097C175.81 43.6839 178.316 42.2516 178.674 41.1774L185.836 26.8548C186.552 25.0645 185.836 22.9161 184.403 22.2C182.613 21.4839 180.465 22.2 179.749 23.6323L172.587 37.9548C171.513 39.3871 172.229 41.5355 174.019 42.6097ZM111 200.516C108.852 200.516 107.419 201.948 107.419 204.097V218.419C107.419 220.568 108.852 222 111 222C113.148 222 114.581 220.568 114.581 218.419V204.097C114.581 201.948 113.148 200.516 111 200.516ZM47.9807 179.39C46.1904 178.674 44.042 179.39 43.3259 180.823L36.1646 195.145C35.4485 196.935 36.1646 199.084 37.5969 199.8C39.3872 200.874 41.8937 199.442 42.2517 198.368L49.413 184.045C50.4872 182.613 49.7711 180.465 47.9807 179.39ZM178.674 181.181C177.958 179.39 175.81 178.674 174.019 179.748C172.229 180.465 171.513 182.613 172.587 184.403L179.749 198.726C180.465 200.158 182.255 201.59 184.403 200.158C186.194 199.442 186.91 197.294 185.836 195.503L178.674 181.181Z" fill="black"/>
<path d="M128.903 111C128.903 113.148 130.335 114.581 132.484 114.581C134.632 114.581 136.065 113.148 136.065 111C136.065 97.0354 124.965 85.9354 111 85.9354C108.852 85.9354 107.419 87.3677 107.419 89.5161C107.419 91.6645 108.852 93.0967 111 93.0967C121.026 93.0967 128.903 100.974 128.903 111ZM93.8129 116.729C93.0968 114.939 90.9484 113.864 89.1581 114.581C87.3678 115.297 86.2936 117.445 87.0097 119.235C90.9484 129.261 100.616 135.706 110.642 135.706C112.79 135.706 114.223 134.274 114.223 132.126C114.223 129.977 112.79 128.545 110.642 128.545C103.481 128.903 96.6774 123.89 93.8129 116.729ZM49.771 95.6032C48.6968 93.8128 46.5484 93.4548 44.7581 94.529C33.6581 101.332 23.2742 108.135 23.2742 108.135C22.2 108.493 21.4839 109.926 21.4839 111C21.4839 112.074 22.2 113.148 22.9161 113.864L33.6581 121.026C34.3742 121.384 36.8807 122.458 38.671 119.952C39.7452 118.161 39.3871 116.013 37.5968 114.939L31.5097 111C35.4484 108.493 41.8936 104.555 48.3387 100.258C50.129 99.5419 50.4871 97.0354 49.771 95.6032Z" fill="black"/>
</svg>
