<svg width="430" height="430" viewBox="0 0 430 430" fill="none" xmlns="http://www.w3.org/2000/svg">
<rect width="430" height="430" fill="#1E1E1E"/>
<path d="M156.059 127.851L119.444 106.543L119.444 194.44C119.445 242.829 186.423 254.815 186.423 254.815V219.3C186.423 219.3 156.059 211.981 156.059 182.898C156.059 153.816 156.059 127.851 156.059 127.851Z" fill="#85B4D7"/>
<path d="M273.941 127.851L310.556 106.543L310.556 194.44C310.555 242.829 243.577 254.815 243.577 254.815V219.3C243.577 219.3 273.941 211.981 273.941 182.898L273.941 127.851Z" fill="#3C57B7"/>
<path d="M215 209.534L186.423 219.3V254.814L215 245.048V209.534Z" fill="#3C57B7"/>
<path d="M243.578 254.815L215 245.048V209.534L243.578 219.3V254.815Z" fill="#85B4D7"/>
<path d="M215 98.0834L156.06 127.851L119.445 106.543L215 63.7036L310.556 106.543L273.941 127.851L215 98.0834Z" fill="white"/>
<path d="M156.059 127.851L215 98.0834V209.534L186.423 219.301C186.423 219.301 156.059 211.754 156.059 183.786V127.851Z" fill="#1E1E1E"/>
<path d="M273.941 127.851L215 98.0834V209.534L243.578 219.3C243.578 219.3 273.941 211.754 273.941 183.786V127.851Z" fill="#85B4D7"/>
<ellipse cx="215.503" cy="157.237" rx="27.6608" ry="27.8072" fill="white"/>
<path d="M126.561 312.668C125.379 306.975 123.202 302.558 120.029 299.417C116.888 296.275 113.108 294.704 108.691 294.704C104.368 294.704 101.008 295.731 98.6132 297.784C96.2492 299.837 95.0672 302.574 95.0672 305.996C95.0672 307.893 95.2383 309.464 95.5804 310.708C95.9226 311.952 96.6225 313.165 97.68 314.347C98.7376 315.498 100.277 316.525 102.299 317.427C104.321 318.298 106.965 319.138 110.231 319.946C112.004 320.382 113.544 320.786 114.85 321.159C116.188 321.533 117.65 322.046 119.236 322.699C120.854 323.352 122.238 324.052 123.389 324.799C124.571 325.545 125.737 326.478 126.888 327.598C128.07 328.687 129.019 329.9 129.734 331.237C130.481 332.575 131.072 334.161 131.507 335.997C131.974 337.801 132.207 339.776 132.207 341.922C132.207 344.784 131.678 347.428 130.621 349.854C129.563 352.249 128.179 354.271 126.468 355.92C124.757 357.568 122.782 358.968 120.542 360.119C118.303 361.27 116.032 362.11 113.73 362.638C111.429 363.167 109.142 363.431 106.872 363.431C99.9663 363.431 92.6099 361.643 84.8024 358.066C84.958 354.706 85.0357 352.638 85.0357 351.86C85.0357 346.79 84.6158 341.736 83.776 336.696C84.1181 336.479 84.4603 336.37 84.8024 336.37C85.2379 336.37 85.6267 336.479 85.9689 336.696C86.6221 340.709 87.6952 344.255 89.1883 347.334C90.7125 350.414 92.4544 352.856 94.414 354.66C96.3736 356.433 98.3955 357.77 100.48 358.672C102.595 359.543 104.725 359.979 106.872 359.979C111.755 359.979 115.503 358.719 118.116 356.2C120.76 353.649 122.082 350.289 122.082 346.121C122.082 341.922 121.102 338.765 119.143 336.65C117.214 334.504 113.513 332.762 108.038 331.424C101.195 329.713 95.8448 327.194 91.9878 323.866C88.1618 320.506 86.2488 316.074 86.2488 310.568C86.2488 307.675 86.7154 305.093 87.6486 302.823C88.6128 300.521 89.8415 298.686 91.3346 297.317C92.8587 295.917 94.6317 294.767 96.6536 293.864C98.6754 292.931 100.666 292.294 102.626 291.951C104.617 291.578 106.638 291.392 108.691 291.392C114.85 291.392 121.258 292.822 127.914 295.684C127.728 297.519 127.634 299.432 127.634 301.423C127.634 306.089 128.008 309.837 128.754 312.668C128.35 312.823 128.008 312.901 127.728 312.901C127.417 312.901 127.028 312.823 126.561 312.668Z" fill="white"/>
<path d="M147.789 330.864C147.789 327.443 149.344 324.628 152.455 322.419C155.596 320.211 159.298 319.106 163.559 319.106C168.785 319.106 172.455 320.148 174.571 322.232C176.717 324.317 177.79 327.831 177.79 332.777V352.14C177.79 353.882 178.428 354.753 179.703 354.753C180.729 354.753 182.036 353.509 183.622 351.02C184.742 351.114 185.504 351.611 185.908 352.514C185.691 352.825 185.317 353.384 184.789 354.193C184.26 355.002 183.871 355.577 183.622 355.92C183.373 356.262 182.985 356.791 182.456 357.506C181.927 358.19 181.491 358.703 181.149 359.046C180.838 359.388 180.403 359.792 179.843 360.259C179.314 360.725 178.816 361.083 178.35 361.332C177.914 361.55 177.401 361.736 176.81 361.892C176.219 362.078 175.628 362.172 175.037 362.172C173.482 362.172 172.191 361.612 171.165 360.492C170.169 359.372 169.578 357.646 169.392 355.313C169.36 355.344 168.878 355.795 167.945 356.666C167.012 357.537 166.359 358.128 165.985 358.439C165.643 358.719 164.975 359.232 163.979 359.979C163.015 360.694 162.191 361.207 161.506 361.519C160.822 361.83 159.967 362.125 158.94 362.405C157.914 362.716 156.903 362.872 155.907 362.872C154.321 362.872 152.906 362.654 151.661 362.218C150.448 361.783 149.5 361.254 148.815 360.632C148.131 360.01 147.571 359.294 147.136 358.486C146.7 357.646 146.405 356.884 146.249 356.2C146.125 355.515 146.063 354.831 146.063 354.147C146.063 352.062 146.405 350.305 147.089 348.874C147.804 347.443 149.111 346.106 151.008 344.862C152.937 343.617 155.301 342.513 158.1 341.549C160.9 340.585 164.663 339.496 169.392 338.283V331.797C169.392 328.656 168.692 326.307 167.292 324.752C165.923 323.197 164.072 322.419 161.74 322.419C159.656 322.419 157.898 322.839 156.467 323.679C155.068 324.488 154.212 325.436 153.901 326.525C156.949 326.992 158.474 328.656 158.474 331.517C158.474 332.824 158.007 333.975 157.074 334.97C156.141 335.965 154.834 336.463 153.155 336.463C151.755 336.463 150.511 335.981 149.422 335.017C148.333 334.021 147.789 332.637 147.789 330.864ZM169.392 351.02V341.269C166.53 341.922 164.166 342.638 162.299 343.415C160.433 344.162 159.002 344.986 158.007 345.888C157.043 346.79 156.374 347.723 156.001 348.688C155.627 349.621 155.441 350.709 155.441 351.954C155.441 353.509 155.892 354.738 156.794 355.64C157.727 356.511 158.862 356.946 160.2 356.946C163.31 356.946 166.374 354.971 169.392 351.02Z" fill="white"/>
<path d="M220.014 361.798C215.908 361.612 211.102 361.519 205.596 361.519C201.801 361.519 197.851 361.612 193.745 361.798C193.621 361.301 193.558 360.959 193.558 360.772C193.558 360.616 193.621 360.228 193.745 359.606C194.772 359.481 195.596 359.357 196.218 359.232C196.871 359.077 197.68 358.843 198.644 358.532C199.64 358.221 200.386 357.786 200.884 357.226C201.381 356.635 201.646 355.935 201.677 355.126C201.801 352.047 201.864 341.922 201.864 324.752H195.565C195.378 324.254 195.285 323.71 195.285 323.119C195.285 322.435 195.378 321.859 195.565 321.393H201.864V316.494C201.864 313.072 202.299 309.837 203.17 306.789C204.072 303.709 205.363 300.956 207.043 298.53C208.753 296.104 210.993 294.176 213.761 292.745C216.561 291.314 219.702 290.598 223.186 290.598C226.421 290.598 229.127 291.423 231.305 293.071C233.513 294.689 234.617 296.835 234.617 299.51C234.617 301.159 234.073 302.589 232.984 303.803C231.896 305.016 230.496 305.622 228.785 305.622C227.137 305.622 225.815 305.218 224.819 304.409C223.855 303.569 223.373 302.512 223.373 301.236C223.373 300.334 223.637 299.463 224.166 298.624C224.726 297.784 225.504 297.193 226.499 296.851C225.877 295.824 225.13 295.171 224.259 294.891C223.388 294.58 222.035 294.424 220.2 294.424C217.338 294.424 214.943 295.451 213.015 297.504C211.117 299.557 210.169 302.263 210.169 305.622V321.393H220.294C220.48 321.859 220.573 322.435 220.573 323.119C220.573 323.71 220.48 324.254 220.294 324.752H210.169C210.169 340.149 210.293 350.274 210.542 355.126C210.573 355.935 210.884 356.635 211.475 357.226C212.066 357.786 212.922 358.221 214.041 358.532C215.161 358.843 216.125 359.077 216.934 359.232C217.743 359.357 218.769 359.481 220.014 359.606C220.138 360.228 220.2 360.648 220.2 360.865C220.2 361.114 220.138 361.425 220.014 361.798Z" fill="white"/>
<path d="M266.856 336.79H241.428C241.303 338.656 241.241 340.305 241.241 341.736C241.334 346.37 242.687 350.087 245.3 352.887C247.913 355.655 251.413 357.039 255.798 357.039C256.98 357.039 258.085 356.915 259.111 356.666C260.138 356.386 260.977 356.075 261.631 355.733C262.315 355.391 263.015 354.893 263.73 354.24C264.446 353.587 264.959 353.073 265.27 352.7C265.612 352.296 266.063 351.705 266.623 350.927C267.183 350.118 267.556 349.605 267.743 349.387C268.489 349.543 269.096 349.885 269.562 350.414C268.007 354.582 265.597 357.708 262.33 359.792C259.064 361.845 255.518 362.872 251.692 362.872C249.795 362.872 247.944 362.623 246.14 362.125C244.367 361.658 242.641 360.881 240.961 359.792C239.281 358.703 237.819 357.366 236.575 355.78C235.331 354.162 234.336 352.156 233.589 349.761C232.843 347.334 232.469 344.659 232.469 341.736C232.469 335.172 234.476 329.76 238.488 325.499C242.501 321.237 247.431 319.106 253.279 319.106C255.861 319.106 258.1 319.48 259.998 320.226C261.926 320.942 263.419 321.921 264.477 323.166C265.565 324.41 266.359 325.779 266.856 327.272C267.385 328.734 267.649 330.304 267.649 331.984C267.649 333.539 267.385 335.141 266.856 336.79ZM252.159 322.139C250.013 322.139 247.975 323.088 246.047 324.985C244.149 326.883 242.781 329.76 241.941 333.617H258.738C259.049 332.435 259.204 331.409 259.204 330.538C259.204 328.111 258.644 326.105 257.525 324.519C256.405 322.932 254.616 322.139 252.159 322.139Z" fill="white"/>
<path d="M278.846 323.119C284.88 322.497 290.137 321.222 294.616 319.293C295.394 319.604 295.938 320.008 296.249 320.506V328.531C297.4 326.354 299.111 324.239 301.381 322.186C303.683 320.133 306.078 319.106 308.567 319.106C310.433 319.106 311.942 319.666 313.092 320.786C314.274 321.875 314.865 323.383 314.865 325.312C314.865 327.147 314.321 328.578 313.232 329.604C312.144 330.631 310.775 331.144 309.127 331.144C307.602 331.144 306.343 330.662 305.347 329.698C304.383 328.702 303.854 327.396 303.761 325.779C302.454 326.338 300.961 327.583 299.282 329.511C297.633 331.44 296.622 333.353 296.249 335.25C296.249 342.187 296.373 348.812 296.622 355.126C296.653 355.935 296.949 356.635 297.509 357.226C298.069 357.786 298.893 358.221 299.982 358.532C301.07 358.843 301.972 359.077 302.688 359.232C303.403 359.357 304.336 359.481 305.487 359.606C305.674 359.979 305.767 360.368 305.767 360.772C305.767 361.083 305.674 361.425 305.487 361.798C300.821 361.612 296.202 361.519 291.63 361.519C287.835 361.519 283.885 361.612 279.779 361.798C279.654 361.301 279.592 360.959 279.592 360.772C279.592 360.616 279.654 360.228 279.779 359.606C280.805 359.481 281.645 359.357 282.298 359.232C282.951 359.077 283.76 358.843 284.724 358.532C285.689 358.221 286.42 357.786 286.917 357.226C287.415 356.635 287.679 355.935 287.711 355.126C287.835 352.047 287.897 348.314 287.897 343.928C287.897 342.467 287.882 339.978 287.851 336.463C287.819 332.948 287.804 329.869 287.804 327.225C286.031 326.136 283.045 325.499 278.846 325.312C278.721 324.814 278.659 324.425 278.659 324.145C278.659 323.959 278.721 323.617 278.846 323.119Z" fill="white"/>
<path d="M322.749 323.119C328.783 322.497 334.04 321.222 338.519 319.293C339.297 319.604 339.841 320.008 340.152 320.506C340.152 336.65 340.277 348.19 340.526 355.126C340.557 355.935 340.79 356.635 341.225 357.226C341.692 357.786 342.345 358.221 343.185 358.532C344.025 358.843 344.725 359.077 345.285 359.232C345.845 359.357 346.576 359.481 347.478 359.606C347.664 359.979 347.758 360.368 347.758 360.772C347.758 361.176 347.664 361.519 347.478 361.798C343.372 361.612 339.39 361.519 335.533 361.519C331.738 361.519 327.788 361.612 323.682 361.798C323.558 361.301 323.495 360.959 323.495 360.772C323.495 360.616 323.558 360.228 323.682 359.606C324.708 359.481 325.548 359.357 326.202 359.232C326.855 359.077 327.663 358.843 328.628 358.532C329.592 358.221 330.323 357.786 330.821 357.226C331.318 356.635 331.583 355.935 331.614 355.126C331.738 352.047 331.8 348.314 331.8 343.928C331.8 342.467 331.785 339.978 331.754 336.463C331.723 332.948 331.707 329.869 331.707 327.225C329.934 326.136 326.948 325.499 322.749 325.312C322.624 324.814 322.562 324.425 322.562 324.145C322.562 323.959 322.624 323.617 322.749 323.119ZM330.074 303.616C330.074 302.03 330.634 300.677 331.754 299.557C332.905 298.437 334.258 297.877 335.813 297.877C337.399 297.877 338.753 298.437 339.872 299.557C340.992 300.677 341.552 302.03 341.552 303.616C341.552 305.171 340.992 306.524 339.872 307.675C338.753 308.795 337.399 309.355 335.813 309.355C334.258 309.355 332.905 308.795 331.754 307.675C330.634 306.524 330.074 305.171 330.074 303.616Z" fill="white"/>
</svg>
