<svg width="41" height="41" viewBox="0 0 41 41" fill="none" xmlns="http://www.w3.org/2000/svg">
<path fill-rule="evenodd" clip-rule="evenodd" d="M10.1431 0.197266C4.62022 0.197266 0.143066 4.67442 0.143066 10.1973V30.1973C0.143066 35.7201 4.62022 40.1973 10.1431 40.1973H30.1431C35.6659 40.1973 40.1431 35.7201 40.1431 30.1973V10.1973C40.1431 4.67442 35.6659 0.197266 30.1431 0.197266H10.1431ZM12.5846 30.4609C12.5846 32.0997 11.2561 33.4282 9.61726 33.4282C7.97847 33.4282 6.64997 32.0997 6.64997 30.4609V18.5409C6.64997 16.9021 7.97847 15.5736 9.61726 15.5736C11.2561 15.5736 12.5846 16.9021 12.5846 18.5409V30.4609ZM9.61726 13.1367H9.57806C7.58729 13.1367 6.29691 11.7652 6.29691 10.0509C6.29691 8.29898 7.625 6.96632 9.65612 6.96632C11.6877 6.96632 12.9361 8.29898 12.975 10.0509C12.975 11.7652 11.6877 13.1367 9.61726 13.1367ZM33.9892 30.4601C33.9892 32.0994 32.6604 33.4282 31.0211 33.4282C29.3819 33.4282 28.053 32.0994 28.053 30.4601V23.8759C28.053 21.4767 27.1954 19.839 25.0469 19.839C23.4061 19.839 22.4311 20.9417 22.0015 22.0098C21.8454 22.3914 21.8046 22.9217 21.8046 23.4568V30.4669C21.8046 32.1025 20.4788 33.4283 18.8432 33.4283C17.202 33.4283 15.8737 32.0985 15.8801 30.4573C15.893 27.1886 15.9095 21.9557 15.8997 18.6082C15.8949 16.9536 17.2518 15.5737 18.9064 15.5737H21.2262C21.5456 15.5737 21.8046 15.8327 21.8046 16.1521C21.8046 16.728 22.6182 16.991 23.0467 16.6063C23.9279 15.8152 25.2089 15.1545 27.1546 15.1545C31.0611 15.1545 33.9892 17.7057 33.9892 23.1895V30.4601Z" fill="white"/>
</svg>
