<svg width="245" height="228" viewBox="0 0 245 228" fill="none" xmlns="http://www.w3.org/2000/svg">
<path d="M97.0759 120.937C84.4188 132.799 75.5576 150.461 75.5576 169.681C75.5576 178.102 77.1617 186.434 80.2124 194.225C89.709 169.927 112.238 154.055 137.251 154.045C162.281 154.045 184.81 169.963 194.289 194.278C197.357 186.469 198.935 178.12 198.944 169.681C198.944 150.191 190.753 132.717 177.787 120.843" stroke="black" stroke-width="5" stroke-miterlimit="100" stroke-linejoin="round"/>
<path d="M133.149 138.842C145.431 138.231 157.821 140.446 169.326 145.488M104.922 145.485C108.608 143.87 112.386 142.546 116.221 141.511L104.922 145.485ZM124.102 139.688C125.444 139.441 122.752 139.867 124.102 139.688V139.688Z" stroke="black" stroke-width="5" stroke-miterlimit="100" stroke-linecap="round" stroke-linejoin="round"/>
<path d="M137.251 154.045C128.633 154.063 120.238 156.235 112.276 159.492C100.822 140.797 94.4929 117.353 94.0852 95.8737C94.0852 60.7853 113.271 27.2238 139.429 3C167.002 27.2216 180.369 60.825 180.436 95.9787C180.419 118.061 174.24 139.768 162.501 159.008C154.505 155.738 145.921 154.045 137.251 154.045Z" stroke="black" stroke-width="5" stroke-miterlimit="100" stroke-linecap="round" stroke-linejoin="round"/>
<path d="M19.5736 187.258C43.1243 179.881 75.7601 203.694 73.1986 213.27C77.1976 204.027 86.4319 197.132 96.2968 199.159C97.7602 205.119 100.047 208.612 102.594 211.322C95.0339 203.762 95.0339 191.505 102.594 183.945C108.789 177.75 118.373 176.488 125.961 180.868L126.023 191.123V155.679C132.316 153.311 138.839 153.691 145.495 155.679V202.113L145.557 180.197C153.145 175.816 163.547 177.214 169.742 183.409C177.302 190.969 177.302 203.226 169.742 210.786C173.267 207.552 173.87 203.251 176.245 198.966C186.11 196.939 197.587 202.884 201.586 212.127C200.187 206.899 200.938 201.504 203.376 196.985C210.824 180.197 233.683 186.614 239.379 196.481C245.076 206.348 241.695 219.303 231.828 225H5.60865C-1.63382 212.127 7.2345 191.123 19.5736 187.258Z" stroke="black" stroke-width="5" stroke-linecap="round" stroke-linejoin="round"/>
<path d="M160.486 72.8386C160.486 85.215 150.541 95.2591 138.134 95.2591C125.737 95.2591 115.648 85.2107 115.648 72.8386C115.648 60.4567 125.732 50.3993 138.134 50.3993C145.353 50.3993 151.738 53.8024 155.816 59.0889" stroke="black" stroke-width="5" stroke-miterlimit="34.1783" stroke-linecap="round" stroke-linejoin="round"/>
</svg>
