<svg width="60" height="60" viewBox="0 0 60 60" fill="none" xmlns="http://www.w3.org/2000/svg">
<path d="M30.0526 50L19.2175 45.2957C16.1287 43.9576 13.5456 41.9598 11.7455 39.5167C9.9454 37.0737 8.99629 34.2776 9.00001 31.4286V12.8571C9.00094 12.0996 9.37091 11.3733 10.0287 10.8377C10.6866 10.302 11.5785 10.0008 12.5088 10H47.5965C48.5268 10.0008 49.4187 10.302 50.0765 10.8377C50.7344 11.3733 51.1043 12.0996 51.1053 12.8571V31.4286C51.109 34.2776 50.1599 37.0737 48.3598 39.5167C46.5597 41.9598 43.9766 43.9576 40.8877 45.2957L30.0526 50ZM12.5088 12.8571V31.4286C12.5059 33.7597 13.2826 36.0475 14.7557 38.0464C16.2288 40.0452 18.3426 41.6797 20.8702 42.7743L30.0526 46.7614L39.2351 42.7757C41.7629 41.681 43.8769 40.0463 45.35 38.0472C46.8231 36.048 47.5997 33.76 47.5965 31.4286V12.8571H12.5088Z" fill="#6379C5"/>
<path d="M30.0526 43.2529V15.7144H44.0877V31.1501C44.0876 32.9608 43.4837 34.7376 42.3405 36.2907C41.1972 37.8438 39.5576 39.115 37.5965 39.9686L30.0526 43.2529Z" fill="#6379C5"/>
</svg>
