<svg width="50" height="41" viewBox="0 0 50 41" fill="none" xmlns="http://www.w3.org/2000/svg">
<path d="M49.0954 4.93239C47.3082 5.73553 45.3877 6.27834 43.3719 6.52246C45.4294 5.27266 47.0094 3.2937 47.7535 0.935773C45.8281 2.09286 43.6954 2.93327 41.4256 3.38624C39.6078 1.42367 37.018 0.197266 34.1519 0.197266C28.6484 0.197266 24.1866 4.71851 24.1866 10.2951C24.1866 11.0866 24.2749 11.8573 24.4447 12.5963C16.1628 12.1752 8.8201 8.15503 3.90522 2.04569C3.04746 3.53711 2.55604 5.27176 2.55604 7.12234C2.55604 10.6257 4.31544 13.7165 6.98928 15.5273C5.35566 15.4749 3.81923 15.0207 2.47556 14.2644C2.47485 14.3065 2.47485 14.3488 2.47485 14.3913C2.47485 19.2839 5.90979 23.3654 10.4685 24.2929C9.6322 24.5237 8.75188 24.647 7.84295 24.647C7.20088 24.647 6.57657 24.5838 5.96825 24.4659C7.23623 28.4778 10.9164 31.3973 15.2769 31.4788C11.8665 34.1871 7.56971 35.8015 2.90106 35.8015C2.09678 35.8015 1.30351 35.7538 0.523926 35.6605C4.93389 38.5256 10.1719 40.1973 15.7994 40.1973C34.1286 40.1973 44.1517 24.8101 44.1517 11.4661C44.1517 11.0282 44.1421 10.5927 44.1229 10.1597C46.0697 8.736 47.7593 6.95743 49.0954 4.93239Z" fill="white"/>
</svg>
