<svg width="222" height="222" viewBox="0 0 222 222" fill="none" xmlns="http://www.w3.org/2000/svg">
<path d="M148.661 222H73.3396C72.1503 222 71.3574 221.207 71.3574 220.017C71.3574 212.481 77.7003 206.136 85.2324 206.136H136.768C144.3 206.136 150.643 212.481 150.643 220.017C150.643 221.207 149.85 222 148.661 222ZM75.3217 218.034H146.679C145.886 213.671 141.922 210.102 136.768 210.102H85.2324C80.4753 210.102 76.511 213.671 75.3217 218.034Z" fill="black"/>
<path d="M136.768 210.102H85.2321C84.0429 210.102 83.25 209.309 83.25 208.119V196.221C83.25 190.668 87.6107 186.305 93.1607 186.305H128.839C134.389 186.305 138.75 190.668 138.75 196.221V208.119C138.75 209.309 137.957 210.102 136.768 210.102ZM87.2143 206.136H134.786V196.221C134.786 193.048 132.011 190.271 128.839 190.271H93.1607C89.9893 190.271 87.2143 193.048 87.2143 196.221V206.136Z" fill="black"/>
<path d="M128.839 190.272H93.1609C91.9716 190.272 91.1787 189.478 91.1787 188.289V184.322C91.1787 178.77 95.5394 174.407 101.089 174.407H120.911C126.461 174.407 130.822 178.77 130.822 184.322V188.289C130.822 189.478 130.029 190.272 128.839 190.272ZM95.143 186.305H126.857V184.322C126.857 181.15 124.082 178.373 120.911 178.373H101.089C97.918 178.373 95.143 181.15 95.143 184.322V186.305ZM116.947 27.6632H105.054C104.261 27.6632 103.468 26.87 103.072 26.0768L99.1073 10.2126C99.1073 9.41938 99.1073 8.62617 99.9001 8.22957L109.414 0.297454C110.207 -0.0991514 111 -0.0991514 111.793 0.297454L122.1 8.22957C122.893 8.62617 122.893 9.41938 122.893 10.2126L118.929 26.0768C118.532 26.87 117.739 27.6632 116.947 27.6632ZM106.639 23.6972H115.361L118.532 10.6092L110.604 4.26351L103.072 10.2126L106.639 23.6972Z" fill="black"/>
<path d="M116.946 130.781H105.45C103.864 130.781 102.278 129.987 101.089 128.798C99.8998 127.608 99.5034 126.021 99.5034 124.435L103.468 25.2836C103.468 24.0937 104.261 23.3005 105.45 23.3005H117.343C118.532 23.3005 119.325 24.0937 119.325 25.2836L123.289 124.435C123.289 126.021 122.893 127.608 121.703 128.798C120.118 129.987 118.532 130.781 116.946 130.781ZM107.036 27.6632L103.071 124.832C103.071 125.228 103.071 126.021 103.468 126.418C103.864 126.815 104.261 127.211 105.053 127.211H116.55C116.946 127.211 117.739 126.815 118.136 126.418C118.532 126.021 118.532 125.625 118.532 124.832L114.964 27.6632H107.036Z" fill="black"/>
<path d="M120.911 178.373H101.09C99.9003 178.373 99.1075 177.58 99.1075 176.39V168.458C99.1075 165.682 100.693 163.699 103.072 162.906V158.146C100.693 157.353 99.1075 154.974 99.1075 152.594V144.662C99.1075 141.886 100.693 139.903 103.072 139.109V128.798C103.072 127.608 103.865 126.815 105.054 126.815H116.947C118.136 126.815 118.929 127.608 118.929 128.798V139.109C121.307 139.903 122.893 142.282 122.893 144.662V152.594C122.893 155.37 121.307 157.353 118.929 158.146V162.906C121.307 163.699 122.893 166.079 122.893 168.458V176.39C122.893 177.58 122.1 178.373 120.911 178.373ZM103.072 174.407H118.929V168.458C118.929 167.268 118.136 166.475 116.947 166.475C115.757 166.475 114.965 165.682 114.965 164.492V156.56C114.965 155.37 115.757 154.577 116.947 154.577C118.136 154.577 118.929 153.784 118.929 152.594V144.662C118.929 143.472 118.136 142.679 116.947 142.679C115.757 142.679 114.965 141.886 114.965 140.696V130.781H107.036V140.696C107.036 141.886 106.243 142.679 105.054 142.679C103.865 142.679 103.072 143.472 103.072 144.662V152.594C103.072 153.784 103.865 154.577 105.054 154.577C106.243 154.577 107.036 155.37 107.036 156.56V164.492C107.036 165.682 106.243 166.475 105.054 166.475C103.865 166.475 103.072 167.268 103.072 168.458V174.407ZM103.072 47.4935H83.2503C76.511 47.4935 70.5646 43.924 67.7896 38.3716C67.3932 37.9749 67.3932 37.5783 66.9967 37.1817C65.0146 34.4055 62.2396 32.4225 58.6717 32.0259C55.1039 31.2327 51.1396 32.4225 47.9682 34.8021L32.9039 47.0969C32.5074 47.4935 32.111 47.4935 31.7146 47.4935H23.786C22.9931 47.4935 22.2003 47.0969 21.8039 46.3037C21.4074 45.5105 21.8039 44.7172 22.2003 44.3206L41.2289 25.2836C46.7789 19.7311 55.1039 16.9549 63.0324 18.1447C70.961 19.3345 77.3039 23.6971 81.2682 30.4394C81.2682 30.4394 81.2682 30.8361 81.6646 30.8361C82.061 31.6293 82.8539 32.0259 83.2503 32.0259H103.072C104.261 32.0259 105.054 32.8191 105.054 34.0089C105.054 35.1987 104.261 35.9919 103.072 35.9919H83.2503C81.2682 35.9919 78.8896 34.8021 78.0967 32.8191C74.9253 26.87 69.3753 23.3005 62.636 22.1107C55.8967 21.3175 49.1574 23.3005 44.0039 28.4564L28.5431 43.5274H30.9217L45.5896 31.6293C49.5539 28.4564 54.311 27.2666 59.4646 27.6632C63.8253 28.4564 67.7896 30.836 70.1682 34.8021C70.5646 35.1987 70.961 35.9919 70.961 36.3885C72.9432 40.7512 77.7003 43.5274 82.8539 43.5274H102.675C103.865 43.5274 104.657 44.3206 104.657 45.5105C104.657 46.7003 104.261 47.4935 103.072 47.4935Z" fill="black"/>
<path d="M49.5534 142.679H5.94625C5.1534 142.679 4.75697 142.282 4.36054 141.886C3.96411 141.489 3.96411 140.696 3.96411 140.299L23.7855 45.1139C23.7855 44.3207 24.9748 43.5275 25.7677 43.5275H29.732C30.5248 43.5275 31.3177 44.3207 31.7141 45.1139L51.5356 140.299C51.5356 140.696 51.5356 141.489 51.1391 141.886C50.7427 142.282 50.3463 142.679 49.5534 142.679ZM8.32483 138.713H47.1748L28.1463 47.4935H27.3534L8.32483 138.713Z" fill="black"/>
<path d="M41.2286 162.509H14.2714C11.1 162.509 7.92857 160.923 5.94643 158.147L0.396428 149.818C-3.83971e-07 149.421 0 149.025 0 148.628V140.696C0 139.506 0.792857 138.713 1.98214 138.713H53.5179C54.7072 138.713 55.5 139.506 55.5 140.696V148.628C55.5 149.025 55.5 149.421 55.1036 149.818L49.5536 158.147C47.5714 160.923 44.7964 162.509 41.2286 162.509ZM3.96429 147.835L9.11786 155.767C10.3071 157.75 12.2893 158.543 14.2714 158.543H41.625C43.6072 158.543 45.5893 157.353 46.3822 155.767L51.5357 147.835V142.679H3.96429V147.835ZM198.214 47.4936H190.286C189.889 47.4936 189.493 47.4936 189.096 47.097L174.032 34.8022C170.861 32.4226 167.293 31.2328 163.329 32.026C159.761 32.4226 156.986 34.4056 155.004 37.1819C154.607 37.5785 154.607 37.9751 154.211 38.3717C151.436 43.9242 145.489 47.4936 138.75 47.4936H118.929C117.739 47.4936 116.946 46.7004 116.946 45.5106C116.946 44.3208 117.739 43.5275 118.929 43.5275H138.75C143.904 43.5275 148.661 40.7513 150.643 36.3886C151.039 35.992 151.039 35.1988 151.436 34.8022C153.814 30.8362 157.779 28.4565 162.139 27.6633C166.896 26.8701 172.05 28.4565 176.014 31.6294L190.682 43.5275H193.061L177.6 28.0599C172.843 23.3007 165.707 20.921 158.968 21.7142C152.625 22.5075 147.075 26.4735 143.904 32.026C143.111 34.4056 141.129 35.5954 138.75 35.5954H118.929C117.739 35.5954 116.946 34.8022 116.946 33.6124C116.946 32.4226 117.739 31.6294 118.929 31.6294H138.75C139.543 31.6294 139.939 31.2328 140.336 30.4396C144.3 23.3007 150.643 18.938 158.571 17.7482C166.5 16.5584 174.825 19.3346 180.375 24.8871L199.404 43.9242C199.8 44.3208 200.197 45.5106 199.8 45.9072C199.404 46.3038 199.007 47.4936 198.214 47.4936Z" fill="black"/>
<path d="M216.053 142.679H172.446C171.653 142.679 171.257 142.282 170.86 141.886C170.464 141.489 170.464 140.696 170.464 140.299L190.285 45.1139C190.285 44.3207 191.475 43.5275 192.267 43.5275H196.232C197.025 43.5275 197.817 44.3207 198.214 45.1139L218.035 140.299C218.035 140.696 218.035 141.489 217.639 141.886C217.242 142.282 216.846 142.679 216.053 142.679ZM174.825 138.713H213.675L194.646 47.4935H193.853L174.825 138.713Z" fill="black"/>
<path d="M207.729 162.509H180.375C177.204 162.509 174.032 160.923 172.05 158.147L166.5 149.818V140.696C166.5 139.506 167.293 138.713 168.482 138.713H220.018C221.207 138.713 222 139.506 222 140.696V148.628C222 149.025 222 149.421 221.604 149.818L216.054 158.147C214.072 160.923 211.297 162.509 207.729 162.509ZM170.464 147.835L175.618 155.767C176.807 157.353 178.393 158.543 180.375 158.543H207.729C209.711 158.543 211.693 157.353 212.486 155.767L217.639 147.835V142.679H170.464V147.835ZM110.604 27.6633C109.414 27.6633 108.622 26.8701 108.622 25.6803V13.7821C108.622 12.5923 109.414 11.7991 110.604 11.7991C111.793 11.7991 112.586 12.5923 112.586 13.7821V25.6803C112.586 26.8701 111.793 27.6633 110.604 27.6633ZM116.947 142.679H105.054C103.864 142.679 103.072 141.886 103.072 140.696C103.072 139.506 103.864 138.713 105.054 138.713H116.947C118.136 138.713 118.929 139.506 118.929 140.696C118.929 141.886 118.136 142.679 116.947 142.679ZM116.947 158.543H105.054C103.864 158.543 103.072 157.75 103.072 156.56C103.072 155.37 103.864 154.577 105.054 154.577H116.947C118.136 154.577 118.929 155.37 118.929 156.56C118.929 157.75 118.136 158.543 116.947 158.543ZM116.947 166.475H105.054C103.864 166.475 103.072 165.682 103.072 164.492C103.072 163.302 103.864 162.509 105.054 162.509H116.947C118.136 162.509 118.929 163.302 118.929 164.492C118.929 165.682 118.136 166.475 116.947 166.475Z" fill="black"/>
</svg>
